<svg width="1179" height="584" viewBox="0 0 1179 584" xmlns="http://www.w3.org/2000/svg"><mask id="satori_om-id"><rect x="0" y="0" width="1179" height="584" fill="#fff"/></mask><mask id="satori_om-id-0"><rect x="0" y="0" width="1179" height="584" fill="#fff"/></mask><rect x="0" y="0" width="1179" height="584" fill="white"/><mask id="satori_om-id-0-0"><rect x="590" y="292" width="1179" height="584" fill="#fff"/></mask><clipPath id="satori_brc-id-0-0-0"><rect x="890" y="417" width="579" height="334"/></clipPath><clipPath id="satori_cp-id-0-0-0"><rect x="890" y="417" width="579" height="334"/></clipPath><mask id="satori_om-id-0-0-0"><rect x="890" y="417" width="579" height="334" fill="#fff"/></mask><image x="890" y="417" width="579" height="334" href="data:image/svg+xml;utf8,%3Csvg  xmlns=%22http://www.w3.org/2000/svg%22 fill=%22none%22 width=%22579%22 height=%22334%22 viewBox=%220 0 579 334%22%3E%3Cpath fill=%22%23E6F1FF%22 d=%22M248 0L330 47.5V142.5L248 190L166 142.5V47.5L248 0Z%22%3E%3C/path%3E%3Cpath fill=%22%23F5EBFF%22 d=%22M82 0L164 47.5V142.5L82 190L0 142.5V47.5L82 0Z%22%3E%3C/path%3E%3Cpath fill=%22%23E9F5E7%22 d=%22M414 0L496 47.5V142.5L414 190L332 142.5V47.5L414 0Z%22%3E%3C/path%3E%3Cpath fill=%22%23EBEBFA%22 d=%22M331 144L413 191.5V286.5L331 334L249 286.5V191.5L331 144Z%22%3E%3C/path%3E%3Cpath fill=%22%23FAE9E6%22 d=%22M497 144L579 191.5V286.5L497 334L415 286.5V191.5L497 144Z%22%3E%3C/path%3E%3Cpath fill=%22%23FFF0E5%22 d=%22M165 144L247 191.5V286.5L165 334L83 286.5V191.5L165 144Z%22%3E%3C/path%3E%3C/svg%3E" preserveAspectRatio="none" transform="matrix(1.00,0.00,0.00,1.00,-589.50,-292.00)" clip-path="url(#satori_brc-id-0-0-0)"/><mask id="satori_om-id-0-0-0-0"><rect x="890" y="417" width="0" height="334" fill="#fff"/></mask><mask id="satori_om-id-0-0-0-1"><rect x="890" y="417" width="0" height="334" fill="#fff"/></mask><mask id="satori_om-id-0-0-0-2"><rect x="890" y="417" width="0" height="334" fill="#fff"/></mask><mask id="satori_om-id-0-0-0-3"><rect x="890" y="417" width="0" height="334" fill="#fff"/></mask><mask id="satori_om-id-0-0-0-4"><rect x="890" y="417" width="0" height="334" fill="#fff"/></mask><mask id="satori_om-id-0-0-0-5"><rect x="890" y="417" width="0" height="334" fill="#fff"/></mask><mask id="satori_om-id-0-0-1"><rect x="590" y="418" width="280" height="190" fill="#fff"/></mask><mask id="satori_om-id-0-0-1-0"><rect x="726" y="474" width="144" height="21" fill="#fff"/></mask><text x="726" y="491" width="16" height="21.1171875" font-weight="600" font-style="normal" font-size="16" font-family="yahei" transform="matrix(1.00,0.00,0.00,1.00,-589.50,-292.00)" fill="#272E47">美联储降息预期升温</text><mask id="satori_om-id-0-0-1-1"><rect x="590" y="503" width="280" height="50" fill="#fff"/></mask><text x="596" y="521" width="14" height="24.5" font-weight="400" font-style="normal" font-size="14" font-family="yahei" transform="matrix(1.00,0.00,0.00,1.00,-589.50,-292.00)" fill="#4E5A70">鲍威尔暗示9月降息可能，叠加美国就业数据</text><text x="674" y="546" width="14" height="24.5" font-weight="400" font-style="normal" font-size="14" font-family="yahei" transform="matrix(1.00,0.00,0.00,1.00,-589.50,-292.00)" fill="#4E5A70">疲软预期，推动黄金白银上涨。</text><mask id="satori_om-id-0-0-2"><rect x="890" y="416" width="164" height="190" fill="#fff"/></mask><text x="937" y="529" width="68.5546875" height="63.28125" font-weight="600" font-style="normal" font-size="54" font-family="notoemoji" transform="matrix(1.00,0.00,0.00,1.00,-589.50,-292.00)" fill="black">📉</text><mask id="satori_om-id-0-0-3"><rect x="990" y="317" width="280" height="79" fill="#fff"/></mask><mask id="satori_om-id-0-0-3-0"><rect x="1066" y="317" width="128" height="21" fill="#fff"/></mask><text x="1066" y="334" width="16" height="21.1171875" font-weight="600" font-style="normal" font-size="16" font-family="yahei" transform="matrix(1.00,0.00,0.00,1.00,-589.50,-292.00)" fill="#272E47">地缘政治风险加剧</text><mask id="satori_om-id-0-0-3-1"><rect x="990" y="346" width="280" height="50" fill="#fff"/></mask><text x="997" y="364" width="28" height="24.5" font-weight="400" font-style="normal" font-size="14" font-family="yahei" transform="matrix(1.00,0.00,0.00,1.00,-589.50,-292.00)" fill="#4E5A70">贸易摩擦、政策不确定性及特朗普关税威胁</text><text x="1046" y="389" width="28" height="24.5" font-weight="400" font-style="normal" font-size="14" font-family="yahei" transform="matrix(1.00,0.00,0.00,1.00,-589.50,-292.00)" fill="#4E5A70">持续支撑贵金属避险需求。</text><mask id="satori_om-id-0-0-4"><rect x="1056" y="416" width="164" height="190" fill="#fff"/></mask><text x="1103" y="529" width="68.5546875" height="63.28125" font-weight="600" font-style="normal" font-size="54" font-family="notoemoji" transform="matrix(1.00,0.00,0.00,1.00,-589.50,-292.00)" fill="black">🛡️</text><mask id="satori_om-id-0-0-5"><rect x="1406" y="418" width="280" height="190" fill="#fff"/></mask><mask id="satori_om-id-0-0-5-0"><rect x="1406" y="474" width="144" height="21" fill="#fff"/></mask><text x="1406" y="491" width="16" height="21.1171875" font-weight="600" font-style="normal" font-size="16" font-family="yahei" transform="matrix(1.00,0.00,0.00,1.00,-589.50,-292.00)" fill="#272E47">工业需求与供应短缺</text><mask id="satori_om-id-0-0-5-1"><rect x="1406" y="503" width="280" height="50" fill="#fff"/></mask><text x="1406" y="521" width="28" height="24.5" font-weight="400" font-style="normal" font-size="14" font-family="yahei" transform="matrix(1.00,0.00,0.00,1.00,-589.50,-292.00)" fill="#4E5A70">白银在清洁能源技术中的应用叠加连续五年</text><text x="1406" y="546" width="28" height="24.5" font-weight="400" font-style="normal" font-size="14" font-family="yahei" transform="matrix(1.00,0.00,0.00,1.00,-589.50,-292.00)" fill="#4E5A70">供应短缺，推升其价格。</text><mask id="satori_om-id-0-0-6"><rect x="1222" y="416" width="164" height="190" fill="#fff"/></mask><text x="1269" y="529" width="68.5546875" height="63.28125" font-weight="600" font-style="normal" font-size="54" font-family="notoemoji" transform="matrix(1.00,0.00,0.00,1.00,-589.50,-292.00)" fill="black">🔋</text><mask id="satori_om-id-0-0-7"><rect x="673" y="560" width="280" height="190" fill="#fff"/></mask><mask id="satori_om-id-0-0-7-0"><rect x="825" y="616" width="128" height="21" fill="#fff"/></mask><text x="825" y="633" width="16" height="21.1171875" font-weight="600" font-style="normal" font-size="16" font-family="yahei" transform="matrix(1.00,0.00,0.00,1.00,-589.50,-292.00)" fill="#272E47">投资需求强劲增长</text><mask id="satori_om-id-0-0-7-1"><rect x="673" y="645" width="280" height="50" fill="#fff"/></mask><text x="678" y="663" width="23.1875" height="24.5" font-weight="400" font-style="normal" font-size="14" font-family="yahei" transform="matrix(1.00,0.00,0.00,1.00,-589.50,-292.00)" fill="#4E5A70">ETF持仓连续七个月扩张，伦敦库存下降及高</text><text x="799" y="688" width="28" height="24.5" font-weight="400" font-style="normal" font-size="14" font-family="yahei" transform="matrix(1.00,0.00,0.00,1.00,-589.50,-292.00)" fill="#4E5A70">租赁利率反映市场紧俏。</text><mask id="satori_om-id-0-0-8"><rect x="973" y="560" width="164" height="190" fill="#fff"/></mask><text x="1020" y="673" width="68.5546875" height="63.28125" font-weight="600" font-style="normal" font-size="54" font-family="notoemoji" transform="matrix(1.00,0.00,0.00,1.00,-589.50,-292.00)" fill="black">📈</text><mask id="satori_om-id-0-0-9"><rect x="1081" y="770" width="280" height="79" fill="#fff"/></mask><mask id="satori_om-id-0-0-9-0"><rect x="1149" y="770" width="144" height="21" fill="#fff"/></mask><text x="1149" y="787" width="16" height="21.1171875" font-weight="600" font-style="normal" font-size="16" font-family="yahei" transform="matrix(1.00,0.00,0.00,1.00,-589.50,-292.00)" fill="#272E47">美元走弱提振购买力</text><mask id="satori_om-id-0-0-9-1"><rect x="1081" y="799" width="280" height="50" fill="#fff"/></mask><text x="1081" y="817" width="14" height="24.5" font-weight="400" font-style="normal" font-size="14" font-family="yahei" transform="matrix(1.00,0.00,0.00,1.00,-589.50,-292.00)" fill="#4E5A70">弱势美元提升中国印度等消费国需求，间接利</text><text x="1165" y="842" width="14" height="24.5" font-weight="400" font-style="normal" font-size="14" font-family="yahei" transform="matrix(1.00,0.00,0.00,1.00,-589.50,-292.00)" fill="#4E5A70">好金银价格走势。</text><mask id="satori_om-id-0-0-10"><rect x="1139" y="560" width="164" height="190" fill="#fff"/></mask><text x="1186" y="673" width="68.5546875" height="63.28125" font-weight="600" font-style="normal" font-size="54" font-family="notoemoji" transform="matrix(1.00,0.00,0.00,1.00,-589.50,-292.00)" fill="black">💱</text><mask id="satori_om-id-0-0-11"><rect x="1489" y="560" width="280" height="190" fill="#fff"/></mask><mask id="satori_om-id-0-0-11-0"><rect x="1489" y="616" width="128" height="21" fill="#fff"/></mask><text x="1489" y="633" width="16" height="21.1171875" font-weight="600" font-style="normal" font-size="16" font-family="yahei" transform="matrix(1.00,0.00,0.00,1.00,-589.50,-292.00)" fill="#272E47">美联储独立性争议</text><mask id="satori_om-id-0-0-11-1"><rect x="1489" y="645" width="280" height="50" fill="#fff"/></mask><text x="1489" y="663" width="14" height="24.5" font-weight="400" font-style="normal" font-size="14" font-family="yahei" transform="matrix(1.00,0.00,0.00,1.00,-589.50,-292.00)" fill="#4E5A70">特朗普对美联储的攻击引发信心担忧，成为金</text><text x="1489" y="688" width="14" height="24.5" font-weight="400" font-style="normal" font-size="14" font-family="yahei" transform="matrix(1.00,0.00,0.00,1.00,-589.50,-292.00)" fill="#4E5A70">价上涨的新催化剂。</text><mask id="satori_om-id-0-0-12"><rect x="1305" y="560" width="164" height="190" fill="#fff"/></mask><text x="1352" y="673" width="68.5546875" height="63.28125" font-weight="600" font-style="normal" font-size="54" font-family="notoemoji" transform="matrix(1.00,0.00,0.00,1.00,-589.50,-292.00)" fill="black">⚖️</text></svg>